<?xml version="1.0" encoding="utf-8"?>
<svg width="1080" height="1080" viewBox="0 0 1080 1080" fill="none" xmlns="http://www.w3.org/2000/svg" xmlns:bx="https://boxy-svg.com"><defs><linearGradient id="heartGradient" x1="540" y1="680" x2="540" y2="1080" gradientUnits="userSpaceOnUse" gradientTransform="matrix(0.788733, 0, 0, 0.788733, 104.229782, 107.188988)"><stop offset="0" stop-color="#22A652"/><stop offset="1" stop-color="#0F6B3A"/></linearGradient><bx:export><bx:file format="svg" path="Sem título.svg"/></bx:export></defs><rect width="1080" height="1080" rx="263.46" ry="263.46" style="stroke: rgb(220, 55, 55); fill: rgb(255, 255, 255); stroke-width: 0px;"/><g transform="matrix(1.017271, 0, 0, 1.017271, -2.911964, -2.31177)" style=""><path d="M 484.399 107.189 L 582.99 107.189 L 582.99 585.726 L 533.694 636.53 L 485.187 585.726 L 485.187 107.189 L 484.399 107.189 Z" fill="black" style=""/><rect x="306.145" y="301.217" width="455.099" height="100.169" fill="black" style=""/><path d="M 533.3 959.02 L 381.075 806.795 C 335.328 761.048 335.328 686.908 381.075 649.837 C 426.821 612.767 496.23 623.02 533.3 681.386 C 570.37 623.02 639.779 612.767 685.525 649.837 C 731.272 686.908 731.272 761.048 685.525 806.795 L 533.3 959.02 Z" fill="url(#heartGradient)" style=""/></g></svg>